<svg width="78" height="78" viewBox="0 0 78 78" fill="none" xmlns="http://www.w3.org/2000/svg">
    <path d="M49.1411 72.3511V69.7647H27.157V68.4714H49.1413V60.7123C49.1413 53.5816 43.3401 47.7804 36.2095 47.7804H29.7434V46.4871C29.7434 44.3482 28.0029 42.6074 25.8637 42.6074C23.7245 42.6074 21.984 44.3479 21.984 46.4871V47.7804H15.5182C8.38757 47.7804 2.58637 53.5816 2.58637 60.7123V68.4714H24.5707V69.7647H2.58637V72.3511C2.58637 73.7774 1.4263 74.9375 0 74.9375V77.5238H51.7274V74.9375C50.3011 74.9375 49.1411 73.7774 49.1411 72.3511ZM25.864 45.1941C26.578 45.1941 27.1573 45.7734 27.1573 46.4874V47.7807H24.5709V46.4874C24.5709 45.7737 25.15 45.1941 25.864 45.1941ZM5.17302 65.885V60.7123C5.17302 55.0079 9.81387 50.3668 15.5182 50.3668H21.9843H29.7434H36.2095C41.9138 50.3668 46.555 55.0079 46.555 60.7123V65.885H5.17302ZM4.47835 74.9375C4.92059 74.1758 5.17274 73.2927 5.17274 72.3511H46.5547C46.5547 73.2927 46.8068 74.1758 47.2491 74.9375H4.47835Z" fill="white"/>
    <path d="M73.712 12.4731H73.7117C73.7117 13.9046 73.0005 15.2341 71.8095 16.0267C71.106 16.4973 70.2875 16.7445 69.4405 16.7445H56.9002L43.1652 20.443C42.7268 20.5632 42.2716 20.6239 41.8126 20.6239C40.8622 20.6239 40.0889 19.8506 40.0889 18.9002V18.5201C40.0889 17.8941 40.429 17.3161 40.9761 17.0121L51.0631 11.4087L49.8073 9.14817L47.7719 10.2784H41.7676C40.5146 10.2784 39.277 10.479 38.0871 10.876L28.6197 14.0312C28.3676 14.1154 28.1049 14.1579 27.8398 14.1579H27.0343C25.675 14.1579 24.5707 13.0535 24.5707 11.6943C24.5707 10.6327 25.2471 9.69248 26.2571 9.3548L37.6112 5.56973C38.5371 5.26185 39.5004 5.10543 40.4743 5.10543H70.0417L78 2.45174L77.1815 0L69.6229 2.51906H40.474C39.221 2.51906 37.9834 2.71962 36.7935 3.11661L25.4383 6.90306C23.3717 7.5911 21.9843 9.51647 21.9843 11.6943C21.9843 14.4784 24.2501 16.7442 27.0343 16.7442H27.8398C28.383 16.7442 28.921 16.6576 29.4369 16.4844L38.9032 13.3302C39.8304 13.0212 40.7938 12.8648 41.7676 12.8648H43.1164L39.7192 14.7516C38.3522 15.5119 37.5028 16.9553 37.5028 18.5198V18.9C37.5028 21.2769 39.4362 23.21 41.8129 23.21C42.5034 23.21 43.1887 23.1182 43.8469 22.9372L57.0737 19.3306H69.4405C70.7998 19.3306 72.1149 18.9322 73.2438 18.1783C75.0478 16.9768 76.1651 15.0125 76.2868 12.8645H77.5917V10.2782H73.712V12.4731Z" fill="white"/>
    <path d="M27.1571 28.3833H24.5707V36.1424H27.1571V28.3833Z" fill="white"/>
    <path d="M19.4623 38.2565L13.9768 32.771L12.148 34.5998L17.6334 40.0853L19.4623 38.2565Z" fill="white"/>
    <path d="M15.5182 42.6079H7.75912V45.1943H15.5182V42.6079Z" fill="white"/>
    <path d="M43.9683 42.6079H36.2092V45.1943H43.9683V42.6079Z" fill="white"/>
    <path d="M32.2658 38.2581L34.0946 40.0869L39.5801 34.6014L37.7512 32.7726L32.2658 38.2581Z" fill="white"/>
</svg>