<svg width="78" height="77" viewBox="0 0 78 77" fill="none" xmlns="http://www.w3.org/2000/svg">
    <path d="M72.2956 64.4777C75.5619 63.9987 78 61.2458 78 57.8277V53.7932C78 52.9862 77.4621 52.4483 76.6551 52.4483H72.6207V51.1034C72.6207 49.6241 71.4104 48.4138 69.9311 48.4138H64.5519V21.5173C64.5519 17.0794 60.9209 13.4483 56.4828 13.4483H55.1379H49.7587H48.4138V10.7587C48.4138 9.9517 47.8759 9.41378 47.0689 9.41378H46.9811C46.3137 4.12562 41.7719 0 36.3102 0H28.2412C22.7795 0 18.2377 4.12562 17.5703 9.41378H17.4825C16.6755 9.41378 16.1376 9.9517 16.1376 10.7587V13.4484H10.7584H8.06904C3.63096 13.4484 0 17.0794 0 21.5173V53.7932C0 58.2311 3.63096 61.8622 8.06904 61.8622H45.7241C45.7241 65.1413 47.2124 68.0882 49.5451 70.0656H43.1689C42.631 70.0656 42.2276 70.3347 41.9585 70.7381C41.6895 71.1415 41.6895 71.6794 41.9585 72.083C43.8413 74.9071 47.0689 76.6554 50.5655 76.6554H67.7793C71.2759 76.6554 74.5034 74.9071 76.6551 72.083C76.9241 71.6796 76.9241 71.1416 76.6551 70.7381C76.3861 70.3347 75.9827 70.0656 75.4447 70.0656H68.7997C70.4911 68.6318 71.7381 66.6885 72.2956 64.4777ZM72.0828 72.6207C70.8724 73.4277 69.3932 73.9656 67.7794 73.9656H50.5655C49.0862 73.9656 47.4724 73.4277 46.2621 72.6207H56.4828H61.8621H72.0828ZM75.3104 55.1381V57.8277C75.3104 59.576 74.2345 61.0553 72.6207 61.5932V55.1381H75.3104ZM61.8621 21.5173V48.4139H53.793V22.8622H55.1379C55.9449 22.8622 56.4828 22.3243 56.4828 21.5173V16.1381C59.4413 16.1381 61.8621 18.5588 61.8621 21.5173ZM53.793 16.1381V20.1726H51.1034V16.1381H53.793ZM26.8966 13.4484V10.7587C26.8966 10.0728 26.5072 9.58273 25.8951 9.45064C26.3565 8.62844 27.2363 8.06904 28.2415 8.06904H36.3105C37.3155 8.06904 38.1953 8.62844 38.6569 9.45064C38.0448 9.58273 37.6554 10.0728 37.6554 10.7587V13.4484H26.8966ZM40.3449 12.1036H45.7241V13.4484H40.3449V12.1036ZM28.2413 2.68978H36.3104C40.3449 2.68978 43.5724 5.64845 44.2449 9.41393H41.5553C40.8828 7.12771 38.8656 5.37941 36.3104 5.37941H28.2413C25.6862 5.37941 23.5344 7.12771 22.9964 9.41393H20.3068C20.9793 5.64845 24.207 2.68978 28.2413 2.68978ZM18.8276 12.1036H24.2068V13.4484H18.8276V12.1036ZM14.793 16.1381V20.1726H12.1034V16.1381H14.793ZM2.68963 53.7932V21.5173C2.68963 18.5587 5.11037 16.1381 8.06889 16.1381H9.41378V21.5173C9.41378 22.3243 9.9517 22.8622 10.7587 22.8622H12.1036V59.1726H8.06904C5.11037 59.1726 2.68963 56.7519 2.68963 53.7932ZM14.793 59.1726V22.8622H16.1379C16.9449 22.8622 17.4828 22.3243 17.4828 21.5173V16.1381H25.5519H39H47.069H48.4139V21.5173C48.4139 22.3243 48.9519 22.8622 49.7588 22.8622H51.1037V48.4139H48.4141C46.9348 48.4139 45.7245 49.6243 45.7245 51.1036V59.1726H14.793ZM48.4138 61.8622V60.5173V51.1036H63.2068H69.931V53.7932V61.8622C69.931 62.2656 69.7964 62.6692 69.7964 63.0726C69.7964 63.1341 69.8007 63.1957 69.807 63.2568C69.1412 67.0358 65.8244 69.9313 61.8619 69.9313H56.4827C52.0449 69.9311 48.4138 66.3002 48.4138 61.8622Z" fill="white"/>
    <path d="M56.4828 67.2419C57.2898 67.2419 57.8277 66.704 57.8277 65.897C57.8277 65.09 57.2898 64.5521 56.4828 64.5521C55.0036 64.5521 53.7932 63.3417 53.7932 61.8625C53.7932 61.0555 53.2553 60.5176 52.4483 60.5176C51.6414 60.5176 51.1034 61.0555 51.1034 61.8625C51.1034 64.8211 53.5242 67.2419 56.4828 67.2419Z" fill="white"/>
</svg>