<svg width="80" height="80" viewBox="0 0 80 80" fill="none" xmlns="http://www.w3.org/2000/svg">
<circle cx="40" cy="40" r="40" fill="#93BD70"/>
<path d="M51.9995 37.4217V42.5778C51.9892 42.7016 51.9714 42.8249 51.97 42.9486C51.9545 44.1266 51.9278 45.3026 51.6738 46.4618C51.0114 49.4847 48.7437 51.5233 45.6565 51.8125C44.6248 51.9091 43.5852 51.9166 42.5492 51.9667C42.4489 51.9714 42.3496 51.9888 42.2497 52H37.7498C37.6265 51.9883 37.5037 51.9728 37.38 51.9653C36.2283 51.8983 35.0606 51.9302 33.9277 51.7478C31.2385 51.3152 29.3893 49.8039 28.5198 47.1832C28.1603 46.1 28.0722 44.9722 28.0441 43.8378C28.0347 43.4488 28.015 43.0602 28 42.6716V37.3279C28.0145 36.9862 28.0197 36.6436 28.045 36.3023C28.1027 35.5331 28.1162 34.756 28.2442 33.998C28.7406 31.0618 30.3981 29.1231 33.3104 28.3741C34.0786 28.1762 34.898 28.165 35.6963 28.0994C36.3787 28.0431 37.065 28.0314 37.7498 28H42.2497C42.373 28.0117 42.4958 28.0272 42.6196 28.0347C43.7638 28.1008 44.923 28.0703 46.0489 28.2489C48.8219 28.6886 50.6866 30.2621 51.5266 32.9733C51.85 34.0168 51.9288 35.0991 51.955 36.1856C51.9648 36.5981 51.9845 37.0101 51.9995 37.4222V37.4217ZM39.802 29.8281C38.114 29.9003 36.2259 29.8984 34.3566 30.085C32.4441 30.2753 31.0749 31.3262 30.3817 33.1641C30.0493 34.0449 29.9425 34.9711 29.9321 35.9016C29.9064 38.2368 29.8909 40.573 29.9139 42.9083C29.9232 43.8814 29.9739 44.8634 30.1211 45.8239C30.4909 48.2341 32.3312 49.8672 34.756 49.9755C36.4491 50.051 38.144 50.1222 39.8381 50.1133C41.766 50.103 43.7019 50.0922 45.619 49.9146C47.6037 49.7308 48.9935 48.6241 49.6638 46.7032C49.9629 45.8464 50.0604 44.9506 50.0688 44.0516C50.0918 41.7163 50.1072 39.3801 50.0843 37.0448C50.0749 36.0872 50.0233 35.1211 49.8785 34.1761C49.5082 31.7659 47.6726 30.1389 45.2436 30.024C43.4961 29.9415 41.7472 29.897 39.8029 29.829L39.802 29.8281Z" fill="white"/>
<path d="M34.0936 39.9849C34.1002 36.7576 36.7369 34.1336 39.9665 34.1406C43.1938 34.1477 45.8187 36.7853 45.8112 40.014C45.8037 43.2412 43.1661 45.8657 39.9374 45.8587C36.7106 45.8517 34.0871 43.2145 34.0936 39.9849ZM43.9363 39.999C43.9363 37.8062 42.1499 36.0179 39.9576 36.0156C37.7639 36.0133 35.9724 37.7973 35.9686 39.9877C35.9649 42.1927 37.755 43.9856 39.9585 43.9837C42.1494 43.9814 43.9367 42.1913 43.9367 39.999H43.9363Z" fill="white"/>
<path d="M46.4675 35.0767C45.6884 35.0767 45.0575 34.4406 45.0622 33.6592C45.0669 32.8905 45.6969 32.2656 46.467 32.2656C47.2461 32.2656 47.8784 32.9026 47.8728 33.6826C47.8676 34.4504 47.2362 35.0767 46.467 35.0767H46.4675Z" fill="white"/>
</svg>
