<svg width="80" height="80" viewBox="0 0 80 80" fill="none" xmlns="http://www.w3.org/2000/svg">
<circle cx="40" cy="40" r="40" fill="#93BD70"/>
<path d="M28 39.1066C28.203 38.692 28.5721 38.4734 28.9769 38.3162C30.5842 37.6923 32.1946 37.0773 33.805 36.4609C39.3204 34.3502 44.8353 32.2394 50.3514 30.1305C50.4817 30.0804 50.6183 30.0353 50.7555 30.0152C51.4949 29.9106 52.0207 30.3516 51.9994 31.1351C51.9856 31.6443 51.8715 32.1548 51.7644 32.6565C50.6308 37.9905 49.4917 43.3231 48.3475 48.6546C48.2892 48.9258 48.1977 49.1989 48.0705 49.445C47.8249 49.9211 47.4013 50.1002 46.8893 49.9461C46.6399 49.8709 46.3874 49.7595 46.1775 49.6079C44.4562 48.3627 42.7449 47.1038 41.0298 45.8492C40.9609 45.7991 40.8914 45.7502 40.8074 45.6895C40.7391 45.7496 40.6746 45.8028 40.6144 45.8598C39.7378 46.696 38.8611 47.5316 37.987 48.3696C37.7276 48.6183 37.4299 48.7642 37.0308 48.7579C37.0533 48.4197 37.0746 48.0884 37.0985 47.757C37.2031 46.2926 37.3052 44.8276 37.4187 43.3639C37.4268 43.2555 37.4932 43.1259 37.5747 43.0526C40.8964 40.0618 44.2231 37.0773 47.5485 34.0915C47.5717 34.0708 47.6037 34.0545 47.6175 34.0288C47.6801 33.913 47.7384 33.7946 47.7979 33.6775C47.655 33.6493 47.5047 33.5804 47.3712 33.6042C47.2089 33.633 47.0516 33.7263 46.9081 33.8165C42.7693 36.4021 38.6324 38.9907 34.4917 41.5738C34.4009 41.6308 34.2536 41.6621 34.1552 41.632C32.3945 41.094 30.6368 40.5453 28.8791 39.9985C28.5226 39.8877 28.1993 39.7279 28.0006 39.3891V39.1079L28 39.1066Z" fill="white"/>
</svg>
