<svg width="80" height="80" viewBox="0 0 80 80" fill="none" xmlns="http://www.w3.org/2000/svg">
<circle cx="40" cy="40" r="40" fill="#93BD70"/>
<path d="M28.0004 51.9992C28.2562 51.0662 28.5004 50.1772 28.7434 49.2878C29.0395 48.2039 29.339 47.1211 29.6249 46.0346C29.6546 45.9209 29.6381 45.7663 29.5824 45.6636C27.1433 41.1749 27.7205 35.8246 31.1121 31.9968C33.1776 29.6657 35.7894 28.3271 38.897 28.0499C44.1469 27.5815 48.8975 30.446 50.9731 35.2817C52.9539 39.8961 51.6744 45.4943 47.8884 48.7938C45.5521 50.8299 42.8368 51.8424 39.7386 51.7946C37.8763 51.7656 36.1186 51.2998 34.4643 50.4398C34.3672 50.3894 34.222 50.3826 34.1133 50.4108C32.1633 50.9142 30.2156 51.4266 28.2675 51.9364C28.196 51.9552 28.1234 51.9707 28 52L28.0004 51.9992ZM30.8589 49.17C30.9361 49.1531 30.9752 49.146 31.0132 49.1358C32.0918 48.8532 33.172 48.5763 34.248 48.2833C34.4888 48.2178 34.6776 48.2392 34.9007 48.3679C37.8052 50.0436 40.8349 50.2931 43.914 48.9639C48.186 47.1192 50.4866 42.7753 49.7319 38.1602C49.0009 33.6917 45.0163 30.1778 40.4802 30.0081C37.9741 29.9144 35.7194 30.6255 33.7769 32.2169C31.5335 34.0552 30.307 36.4461 30.1268 39.3415C29.9929 41.4939 30.541 43.4856 31.7149 45.2983C31.8187 45.4586 31.8405 45.5974 31.7878 45.7836C31.4741 46.8969 31.1742 48.0139 30.8589 49.17Z" fill="white"/>
<path d="M36.1912 34.4011C36.6709 34.2758 36.9102 34.6008 37.0885 35.064C37.3545 35.7547 37.6461 36.4361 37.9395 37.1163C38.0422 37.3544 38.0403 37.5659 37.885 37.7732C37.6453 38.093 37.4136 38.4195 37.1611 38.7292C36.9993 38.9274 36.9929 39.1054 37.1209 39.3202C38.0904 40.9523 39.4433 42.1348 41.2104 42.8391C41.4523 42.9354 41.6457 42.9004 41.8098 42.6957C42.1066 42.3251 42.4166 41.9643 42.7007 41.5843C42.8658 41.3635 43.0573 41.2758 43.303 41.3902C44.1544 41.7879 45.0032 42.1923 45.8444 42.6103C45.9328 42.6543 46.016 42.8048 46.019 42.9087C46.0438 43.792 45.788 44.534 44.9956 45.0468C44.0272 45.6732 43.0114 45.7379 41.932 45.4373C39.2209 44.6822 37.1637 43.0264 35.5117 40.8044C34.9184 40.0061 34.3488 39.1938 34.0941 38.2137C33.7852 37.0252 33.9658 35.9349 34.7894 34.9865C35.2416 34.4654 35.4079 34.3905 36.1912 34.4011Z" fill="white"/>
</svg>
