<svg width="26" height="26" viewBox="0 0 26 26" fill="none" xmlns="http://www.w3.org/2000/svg">
<path d="M7.20423 1.38605C6.95705 1.13887 6.6218 1 6.27223 1C3.36046 1 1 3.36046 1 6.27223V8.75914C1 10.3508 1.38338 11.9191 2.11771 13.3313C4.46691 17.8489 8.15105 21.5331 12.6687 23.8823C14.0809 24.6166 15.6492 25 17.2409 25H20.8483C23.1412 25 25 23.1412 25 20.8483C25 19.8072 24.4797 18.8349 23.6134 18.2574C23.1572 17.9533 21.2323 16.67 20.9863 16.609C20.7565 16.5521 20.5162 16.5521 20.2864 16.609C20.0404 16.67 17.9414 18.1655 17.2826 18.4582C16.6238 18.7508 15.8799 18.7885 15.195 18.5638C14.9595 18.4866 13.5441 17.8405 12.5894 17.2032C10.8473 16.0403 9.94279 15.1639 8.79681 13.4106C8.27548 12.613 7.72767 11.4452 7.65816 11.2526C7.37433 10.4662 7.47972 9.30071 8.06959 8.51643C8.65946 7.73215 10.4002 6.14523 10.5081 5.81312C10.6031 5.52098 10.6031 5.20629 10.5081 4.91416C10.432 4.67991 7.20423 1.38605 7.20423 1.38605Z" stroke="white" stroke-width="2" stroke-miterlimit="1.41421" stroke-linejoin="round"/>
</svg>
