<svg width="79" height="40" viewBox="0 0 79 40" fill="none" xmlns="http://www.w3.org/2000/svg">
    <path d="M0.234696 22.2558C0.366062 20.0778 0.962193 11.8136 2.64985 7.29618C2.70679 7.14396 2.78985 7.00169 2.90449 6.88649C3.24823 6.54088 3.74757 6.46025 4.16403 6.64236C4.52712 6.80116 5.00729 6.88179 5.59158 6.88179C7.06593 6.88179 8.59159 6.36403 8.6053 6.35933C9.08773 6.19226 9.62334 6.37079 9.90919 6.79459C11.6382 9.35726 15.2191 13.4965 17.4674 13.6937C17.8447 13.7267 18.227 13.7437 18.604 13.7437C23.6339 13.7437 27.2557 10.7628 28.2069 9.89156C28.4728 8.13155 29.7788 1.47209 34.4476 0.0841943C34.6265 0.0283778 34.8152 0 35.0082 0C35.8964 0 37.2794 0.503664 40.1169 4.43037C41.2696 6.02575 42.2409 7.59951 42.6123 8.21443L61.4061 18.6159C61.8808 18.8786 62.3912 19.0703 62.9216 19.1847L75.5621 21.9151C77.3008 22.2907 78.4897 23.8521 78.3894 25.6281C78.3894 25.6281 78.0967 30.4167 78.0484 30.5337C77.8883 30.9203 73.8848 40 52.8257 40H4.18471C3.05992 40 1.95862 39.5835 1.16986 38.7814C0.398577 37.997 -0.016761 36.9594 0.000529031 35.8594L0.198426 23.1956C0.198426 23.1956 0.21703 22.5475 0.234696 22.2558ZM63.1702 22.7529C62.9567 23.4101 62.4104 24.3127 61.0206 24.8814C59.9441 25.3217 58.6622 25.5557 57.305 25.8034C55.2884 26.1714 53.2135 26.5516 51.6777 27.6078C51.9004 27.8694 52.1928 28.0616 52.5341 28.1609C53.0233 28.303 53.532 28.2351 53.9663 27.969L55.1597 27.2385C56.7263 26.2793 58.5341 25.778 60.3638 25.7874C60.4687 25.788 60.5722 25.7882 60.676 25.7882C66.2565 25.7882 70.4514 24.9771 72.4873 23.558L63.323 21.5785C63.3392 21.9521 63.301 22.3505 63.1702 22.7529ZM50.3499 25.7852C52.2924 24.4283 54.7209 23.9825 56.9004 23.5849C58.1385 23.359 59.308 23.1455 60.1668 22.7942C60.6374 22.6018 60.9255 22.3556 61.0235 22.0624C61.1484 21.6878 61.005 21.2035 60.8742 20.8991L55.3003 17.8141L53.1518 21.5584C52.9434 21.9216 52.5636 22.125 52.1727 22.125C51.9823 22.125 51.7895 22.0767 51.6126 21.9752C51.0725 21.6653 50.8859 20.9761 51.1958 20.436L53.3268 16.722L52.1029 16.0447L49.9178 19.8528C49.7094 20.2161 49.3294 20.4195 48.9387 20.4195C48.7483 20.4195 48.5555 20.3712 48.3786 20.2697C47.8385 19.9598 47.6519 19.2706 47.9618 18.7305L50.1294 14.9526L48.9355 14.2919L46.9043 17.8318C46.6959 18.1951 46.3159 18.3984 45.9252 18.3984C45.7348 18.3984 45.542 18.3501 45.3651 18.2486C44.825 17.9387 44.6384 17.2496 44.9483 16.7095L46.9622 13.1998L45.5792 12.4343L43.5303 16.0053C43.3219 16.3685 42.9419 16.5719 42.5512 16.5719C42.3608 16.5719 42.168 16.5236 41.9911 16.4221C41.451 16.1122 41.2644 15.423 41.5743 14.8829L43.6059 11.3422L42.1445 10.5334C41.3941 11.5258 39.9511 13.1923 37.7151 14.8077C34.8319 16.8906 30.0603 19.2575 23.265 19.2575C22.6705 19.2575 22.0599 19.2394 21.4345 19.2013C20.1152 19.121 18.8331 19.0192 17.5923 18.8978C20.1885 21.1744 21.3849 23.0498 21.8616 23.9511L31.473 26.3005C35.4775 27.2795 39.6329 27.0267 43.4893 25.5698L45.4068 24.8455C47.1569 24.1838 49.0494 24.5941 50.3499 25.7852ZM3.49048 13.2921C3.02891 16.0233 2.75227 18.8777 2.60324 20.7566C4.07382 20.1479 5.72069 20.0049 7.29972 20.3909L18.6198 23.1581C16.7141 20.8019 12.4544 16.8867 3.49048 13.2921ZM17.2702 15.9402C13.8115 15.6369 9.9013 10.6551 8.51378 8.73257C7.79606 8.91637 6.70265 9.137 5.59158 9.137C5.18358 9.137 4.79868 9.10712 4.43935 9.04792C4.25236 9.66416 4.08134 10.3351 3.92554 11.0387C7.35047 12.3883 10.1507 13.798 12.4343 15.1759C13.5805 15.8675 14.8551 16.324 16.1847 16.4789C17.8893 16.6773 19.6918 16.8352 21.5709 16.9496C27.2373 17.2941 32.1954 15.9791 36.3072 13.0413C36.9834 12.5584 37.5797 12.0684 38.0994 11.5978C37.1864 10.4287 35.8964 9.11596 35.0114 8.89476C34.1456 8.67807 31.7447 9.94625 30.0189 11.2798C29.4121 11.8904 25.0885 15.9989 18.6038 15.9989C18.1614 15.9987 17.7128 15.979 17.2702 15.9402ZM35.0298 2.26461C33.1373 2.87333 31.9913 4.98741 31.3612 6.66567C31.1948 7.10863 31.0548 7.54595 30.9374 7.95847C32.3899 7.12648 34.1984 6.36666 35.5587 6.70664C37.1539 7.10543 38.7461 8.79985 39.6904 9.975C40.0201 9.59444 40.2764 9.26555 40.4619 9.01334C38.3587 5.55685 35.9218 2.51701 35.0298 2.26461ZM75.1385 24.1332C73.6301 26.0671 69.8506 28.0436 60.6974 28.0436C60.5829 28.0436 60.4674 28.0434 60.3514 28.0427C58.9336 28.0289 57.5453 28.4221 56.3369 29.162L55.1435 29.8925C54.5031 30.2847 53.7694 30.4868 53.0308 30.4868C52.6525 30.4868 52.273 30.4338 51.9037 30.3264C50.8132 30.0092 49.9017 29.2421 49.4023 28.222C48.8194 27.0304 47.444 26.486 46.2035 26.9545L44.2858 27.6788C40.0018 29.2973 35.3862 29.5779 30.937 28.4905L6.76411 22.5817C5.27341 22.2173 3.69589 22.5236 2.45045 23.3969L2.37527 28.208C7.32471 28.1656 26.3264 28.1475 33.5967 30.2727C41.2415 32.5074 46.4491 32.6076 57.8594 32.8271L59.488 32.8587C65.8137 32.9844 70.0449 31.9902 72.4816 31.1359C74.2792 30.5055 75.3871 29.8568 75.9109 29.5072L76.1377 25.5007C76.174 24.8583 75.7562 24.2926 75.1385 24.1332ZM2.77858 37.2013C3.12382 37.552 3.58482 37.745 4.07683 37.745H52.8256C62.8154 37.745 68.5544 35.605 71.6433 33.7638C68.9761 34.5163 65.3443 35.125 60.573 35.125C60.2039 35.125 57.816 35.0823 57.816 35.0823C46.1994 34.8587 40.8975 34.7566 32.9641 32.4377C26.0552 30.4183 7.09694 30.4292 2.34013 30.4653L2.25518 35.8949C2.24748 36.3866 2.43334 36.8506 2.77858 37.2013Z" fill="white"/>
    <path d="M18.7468 32.3574H26.3895C27.0122 32.3574 27.5172 32.8624 27.5172 33.485C27.5172 34.1077 27.0122 34.6126 26.3895 34.6126H18.7468C18.1242 34.6126 17.6192 34.1077 17.6192 33.485C17.6192 32.8624 18.1242 32.3574 18.7468 32.3574Z" fill="white"/>
    <path d="M5.46605 32.3574H13.1088C13.7314 32.3574 14.2364 32.8624 14.2364 33.485C14.2364 34.1077 13.7314 34.6126 13.1088 34.6126H5.46605C4.84342 34.6126 4.33844 34.1077 4.33844 33.485C4.33844 32.8624 4.84342 32.3574 5.46605 32.3574Z" fill="white"/>
    <path d="M34.5333 12.8121C33.8413 12.8121 33.2804 12.2511 33.2804 11.5591C33.2804 10.8671 33.8413 10.3062 34.5333 10.3062C35.2253 10.3062 35.7863 10.8671 35.7863 11.5591C35.7863 12.2511 35.2253 12.8121 34.5333 12.8121Z" fill="white"/>
    <path d="M31.5264 14.441C30.8344 14.441 30.2734 13.88 30.2734 13.188C30.2734 12.496 30.8344 11.9351 31.5264 11.9351C32.2184 11.9351 32.7793 12.496 32.7793 13.188C32.7793 13.88 32.2184 14.441 31.5264 14.441Z" fill="white"/>
</svg>