<svg width="72" height="78" viewBox="0 0 72 78" fill="none" xmlns="http://www.w3.org/2000/svg">
    <path d="M51.7632 48.6866C51.1165 48.5597 50.4886 48.981 50.3615 49.6278L49.7087 52.948C49.5815 53.5947 50.003 54.2226 50.6499 54.3497C50.7276 54.3649 50.8051 54.3722 50.8813 54.3722C51.4404 54.3722 51.9395 53.9777 52.0516 53.4084L52.7044 50.0882C52.8318 49.4415 52.4102 48.8137 51.7632 48.6866Z" fill="white"/>
    <path d="M54.6565 37.9017C54.4297 37.626 54.0915 37.4663 53.7345 37.4663H47.8423C47.183 37.4663 46.6484 38.0007 46.6484 38.6602C46.6483 39.3196 47.1827 39.854 47.8422 39.854H52.283L51.1627 45.5527C51.0354 46.1994 51.457 46.8272 52.1038 46.9544C52.1815 46.9697 52.2591 46.9771 52.3352 46.977C52.8943 46.977 53.3936 46.5824 53.5055 46.0131L54.9059 38.8903C54.9749 38.5402 54.8832 38.1774 54.6565 37.9017Z" fill="white"/>
    <path d="M57.9596 19.6284C58.4261 20.0944 59.182 20.094 59.6479 19.6274L62.4098 16.862C62.4107 16.8613 62.4117 16.8605 62.4126 16.8594L70.7132 8.54801C71.7496 7.51009 71.7087 5.77992 70.6215 4.69112L66.782 0.847031C66.2447 0.308648 65.5113 0 64.7699 0C64.0671 0 63.4122 0.268277 62.9257 0.755016L59.4135 4.27187C59.4127 4.27263 59.4119 4.27339 59.411 4.27431L47.195 16.5064C42.3167 14.6072 36.7407 15.7109 33.0851 19.3716L26.9086 25.556C26.7417 25.5296 26.5709 25.5144 26.3964 25.5144L20.6018 25.5116C19.706 25.5116 18.8649 25.8651 18.2333 26.5067C17.6082 27.1416 17.2636 27.9839 17.2618 28.8792C16.6925 28.4552 16.0054 28.2226 15.2796 28.2226C14.3761 28.2226 13.5249 28.5763 12.8828 29.2186C12.8828 29.2186 8.48372 33.6404 8.38363 33.7774H3.97221C1.8202 33.7774 0.0694687 35.5276 0.0694687 37.6792C0.0694687 38.8303 0.570832 39.8662 1.36637 40.5809C0.507 41.8103 0 43.303 0 44.9134C0 49.0975 3.40504 52.5015 7.59053 52.5015C7.91319 52.5015 8.23098 52.4797 8.54298 52.4399L13.1393 75.8184C13.3877 77.0826 14.5022 78 15.7897 78H48.6063C49.8936 78 51.0082 77.0824 51.2565 75.8187L55.8532 52.4399C56.1655 52.4797 56.4833 52.5015 56.8061 52.5015C60.9916 52.5015 64.3968 49.0975 64.3968 44.9134C64.3968 43.303 63.8898 41.8103 63.0302 40.5809C63.8258 39.8661 64.3271 38.8301 64.3271 37.679C64.3271 35.5275 62.5764 33.7774 60.4244 33.7774H55.0806C56.1803 30.7838 56.1857 27.4013 54.9812 24.3005L56.3098 22.9704C56.7756 22.5038 56.7752 21.7478 56.3087 21.2821C55.8422 20.8161 55.0863 20.8166 54.6204 21.2832L52.1355 23.7714L52.4844 24.5269C53.8735 27.5331 53.8238 30.9332 52.4981 33.7775H51.3924C52.7327 31.2588 52.9171 28.1927 51.7865 25.3916C51.5397 24.7802 50.8446 24.4841 50.2326 24.7313C49.6209 24.9783 49.3256 25.6739 49.5723 26.2852C50.6118 28.8612 50.1995 31.721 48.5443 33.7775H44.1577L33.1157 22.7207L34.7754 21.0589C37.9214 17.9085 42.822 17.0832 46.9691 19.0038L47.7262 19.3544L54.4553 12.6167C54.5356 12.723 54.6212 12.8264 54.7179 12.9236L58.557 16.7677C58.6534 16.8643 58.7582 16.9508 58.8662 17.0322L57.9592 17.9403C57.4925 18.4066 57.4932 19.1626 57.9596 19.6284ZM19.9348 28.1818C20.1141 27.9997 20.3507 27.8995 20.6013 27.8995L24.5663 27.9015L20.4544 32.0185L19.6499 31.2136L19.6491 28.886C19.6494 28.6188 19.7506 28.3688 19.9348 28.1818ZM14.5718 30.9066C14.7627 30.7155 15.0142 30.6103 15.2798 30.6103C15.5322 30.6103 15.7679 30.7067 15.9429 30.8818L18.7672 33.708L18.6982 33.777H11.7026L14.5718 30.9066ZM3.97221 36.1649H5.47691C5.44477 36.4406 5.45269 36.7225 5.50784 37.002L5.93866 39.1932H3.97221C3.13691 39.1932 2.4573 38.5137 2.4573 37.6789C2.45746 36.8442 3.13691 36.1649 3.97221 36.1649ZM7.59053 50.1136C4.72174 50.1136 2.38784 47.7808 2.38784 44.9132C2.38784 43.6372 2.85233 42.4696 3.61816 41.5641C3.73486 41.5746 3.85277 41.5809 3.97221 41.5809H6.40819L8.08107 50.0894C7.91944 50.1049 7.75613 50.1136 7.59053 50.1136ZM48.9136 75.3582C48.8847 75.5054 48.7555 75.6123 48.6063 75.6123H15.7897C15.6404 75.6123 15.5112 75.5055 15.4822 75.3579L14.7851 71.8123H49.6106L48.9136 75.3582ZM58.8882 37.0025C58.9435 36.7226 58.9514 36.4408 58.9191 36.165H60.4243C61.2596 36.165 61.9392 36.8443 61.9392 37.679C61.9392 38.5139 61.2594 39.1933 60.4243 39.1933H58.4575L58.8882 37.0025ZM60.4243 41.5812V41.581C60.5437 41.581 60.6616 41.5748 60.7785 41.5643C61.5443 42.4696 62.0088 43.6373 62.0088 44.9134C62.0088 47.7809 59.6749 50.1138 56.8059 50.1138C56.6403 50.1138 56.4769 50.1051 56.3152 50.0897L57.9881 41.5812H60.4243ZM56.238 36.165V36.1649C56.4331 36.1649 56.5832 36.3504 56.5456 36.5412L51.5047 62.1803H26.6597C26.0002 62.1803 25.4658 62.7147 25.4658 63.3742C25.4658 64.0337 26.0002 64.5682 26.6597 64.5682H51.0352L50.0804 69.4246H14.3159L13.3612 64.5682H21.4066C22.0661 64.5682 22.6005 64.0337 22.6005 63.3742C22.6005 62.7147 22.0661 62.1803 21.4066 62.1803H12.8916L7.85058 36.5406C7.8128 36.3503 7.96346 36.165 8.15801 36.165H56.238ZM40.7826 33.7772H22.1258C22.1186 33.7667 22.1113 33.7562 22.104 33.7457L31.4278 24.4099L40.7826 33.7772ZM64.6151 2.44253C64.6513 2.40612 64.7034 2.38784 64.7699 2.38784C64.8821 2.38784 64.9996 2.44116 65.0925 2.53424L68.9317 6.37833C69.0958 6.54271 69.1156 6.76863 69.0236 6.8608L67.9854 7.90024L63.5747 3.4841L64.6151 2.44253ZM56.4066 11.236C56.2426 11.0717 56.2226 10.846 56.3146 10.7538L61.8875 5.17359L66.2982 9.58973L60.7232 15.1721C60.5909 15.3048 60.3519 15.1864 60.2457 15.0801L56.4066 11.236Z" fill="white"/>
</svg>