<svg width="79" height="79" viewBox="0 0 79 79" fill="none" xmlns="http://www.w3.org/2000/svg">
<rect width="79" height="79" rx="11.85" fill="#93BD70" fill-opacity="0.3"/>
<path fill-rule="evenodd" clip-rule="evenodd" d="M39.5 21.725C29.6831 21.725 21.725 29.6831 21.725 39.5C21.725 49.3168 29.6831 57.275 39.5 57.275C49.3169 57.275 57.275 49.3168 57.275 39.5C57.275 29.6831 49.3169 21.725 39.5 21.725ZM47.0908 34.9744C47.5911 34.3271 47.4718 33.3968 46.8245 32.8966C46.1771 32.3964 45.2469 32.5157 44.7467 33.163L37.4384 42.6208L34.1823 39.0028C33.635 38.3947 32.6984 38.3455 32.0904 38.8927C31.4823 39.44 31.433 40.3766 31.9803 40.9846L36.424 45.9221C36.7179 46.2486 37.1415 46.4279 37.5805 46.4114C38.0195 46.395 38.4285 46.1845 38.6971 45.8369L47.0908 34.9744Z" fill="#93BD70"/>
</svg>
